<?xml version="1.0" encoding="UTF-8"?><svg id="Layer_1" xmlns="http://www.w3.org/2000/svg" viewBox="0 0 780.61 193.36"><polygon points="70.48 70.52 50.21 70.52 50.21 21.18 20.27 21.18 20.27 70.52 0 70.52 0 .92 70.48 .92 70.48 70.52"/><g><rect x="278.39" y=".96" width="20.27" height="69.56"/><rect x="325.68" y=".96" width="20.27" height="69.56"/><rect x="302.04" y=".96" width="20.27" height="69.56"/></g><g><path d="M631.33,39.12h-20.27c0-9.87-8.03-17.9-17.9-17.9V.96c21.04,0,38.16,17.12,38.16,38.16Z"/><polygon points="631.91 68.64 564.35 68.64 564.35 .96 584.62 .96 584.62 48.37 631.91 48.37 631.91 68.64"/></g><g><rect x="713.05" y="25.51" width="20.27" height="20.46"/><rect x="760.34" y="25.51" width="20.27" height="20.46"/><rect x="736.7" y="25.51" width="20.27" height="20.46"/><rect x="736.7" y=".96" width="20.27" height="20.46"/><rect x="713.05" y="50.06" width="20.27" height="20.46"/><rect x="760.34" y="50.06" width="20.27" height="20.46"/><rect x="713.05" y=".96" width="20.27" height="20.46"/><rect x="760.34" y=".96" width="20.27" height="20.46"/></g><g><polygon points="488.74 69.6 468.47 69.6 468.47 20.27 438.53 20.27 438.53 69.6 418.26 69.6 418.26 0 488.74 0 488.74 69.6"/><path d="M463.63,34.82c0,5.6-4.54,10.13-10.13,10.13s-10.13-4.54-10.13-10.13,4.54-10.13,10.13-10.13,10.13,4.54,10.13,10.13Z"/></g><g><polygon points="171.55 1 151.5 35.74 191.61 35.74 171.55 1"/><polygon points="151.5 35.73 131.44 70.47 171.55 70.47 151.5 35.73"/><polygon points="191.61 35.73 171.56 70.47 211.67 70.47 191.61 35.73"/></g><path d="M5.2,193.36v-55.56H24.21l16.98,31.92v-31.92h15.42v55.56h-18.15l-17.68-33.65v33.65H5.2Z"/><path d="M182.06,193.36l-2.97-9.23h-19.17l-3.05,9.23h-16.67l20.42-55.56h18.08l20.5,55.56h-17.14Zm-18.15-21.52h11.11l-5.56-17.06-5.56,17.06Z"/><path d="M280.67,193.36v-55.56h23.01l9.55,34.19,9.62-34.19h21.75v55.56h-15.34v-35.76l-10.25,35.76h-12.36l-10.33-36.07v36.07h-15.65Z"/><path d="M466.34,193.36l-2.97-9.23h-19.17l-3.05,9.23h-16.67l20.42-55.56h18.08l20.5,55.56h-17.14Zm-18.15-21.52h11.11l-5.56-17.06-5.56,17.06Z"/><path d="M574.66,193.36v-55.56h22.85c17.53,0,29.58,9.7,29.58,27.15v1.25c0,17.53-12.13,27.15-29.58,27.15h-22.85Zm16.12-13.15h5.79c8.22,0,13.38-3.52,13.38-14.01v-1.25c0-10.56-5.24-14.01-13.22-14.01h-5.95v29.27Z"/><path d="M757.06,193.36l-2.97-9.23h-19.17l-3.05,9.23h-16.67l20.42-55.56h18.08l20.5,55.56h-17.14Zm-18.15-21.52h11.11l-5.56-17.06-5.56,17.06Z"/></svg>