<?xml version="1.0" encoding="utf-8"?>
<!-- Generator: Adobe Illustrator 27.0.1, SVG Export Plug-In . SVG Version: 6.00 Build 0)  -->
<svg version="1.1" id="Layer_1" xmlns="http://www.w3.org/2000/svg" xmlns:xlink="http://www.w3.org/1999/xlink" x="0px" y="0px"
	 viewBox="0 0 996.2 419.24" style="enable-background:new 0 0 996.2 419.24;" xml:space="preserve">
<style type="text/css">
	.st0{fill:#FFFF00;}
</style>
<g>
	<polygon class="st0" points="178.27,183.46 158.01,183.46 158.01,134.13 128.06,134.13 128.06,183.46 107.79,183.46 107.79,113.86 
		178.27,113.86 	"/>
</g>
<g>
	<rect x="386.18" y="113.9" class="st0" width="20.27" height="69.56"/>
	<rect x="433.48" y="113.9" class="st0" width="20.27" height="69.56"/>
	<rect x="409.83" y="113.9" class="st0" width="20.27" height="69.56"/>
</g>
<g>
	<path class="st0" d="M739.13,152.07h-20.27c0-9.87-8.03-17.9-17.9-17.9V113.9C722.01,113.9,739.13,131.02,739.13,152.07z"/>
	<polygon class="st0" points="739.7,181.58 672.14,181.58 672.14,113.9 692.41,113.9 692.41,161.32 739.7,161.32 	"/>
</g>
<g>
	<rect x="820.84" y="138.45" class="st0" width="20.27" height="20.46"/>
	<rect x="868.14" y="138.45" class="st0" width="20.27" height="20.46"/>
	<rect x="844.49" y="138.45" class="st0" width="20.27" height="20.46"/>
	<rect x="844.49" y="113.9" class="st0" width="20.27" height="20.46"/>
	<rect x="820.84" y="163" class="st0" width="20.27" height="20.46"/>
	<rect x="868.14" y="163" class="st0" width="20.27" height="20.46"/>
	<rect x="820.84" y="113.9" class="st0" width="20.27" height="20.46"/>
	<rect x="868.14" y="113.9" class="st0" width="20.27" height="20.46"/>
</g>
<g>
	<polygon class="st0" points="596.53,182.54 576.26,182.54 576.26,133.21 546.32,133.21 546.32,182.54 526.05,182.54 526.05,112.94 
		596.53,112.94 	"/>
	<path class="st0" d="M571.43,147.77c0,5.6-4.54,10.13-10.13,10.13c-5.6,0-10.13-4.54-10.13-10.13c0-5.6,4.54-10.13,10.13-10.13
		C566.89,137.63,571.43,142.17,571.43,147.77z"/>
</g>
<g>
	<polygon class="st0" points="279.35,113.95 259.29,148.69 299.4,148.69 	"/>
	<polygon class="st0" points="259.29,148.68 239.23,183.41 279.35,183.41 	"/>
	<polygon class="st0" points="299.4,148.68 279.35,183.41 319.46,183.41 	"/>
</g>
<g>
	<g>
		<path class="st0" d="M112.99,306.3v-55.56h19.01l16.98,31.92v-31.92h15.42v55.56h-18.15l-17.68-33.65v33.65H112.99z"/>
	</g>
</g>
<g>
	<g>
		<path class="st0" d="M289.85,306.3l-2.97-9.23h-19.17l-3.05,9.23h-16.67l20.42-55.56h18.08l20.5,55.56H289.85z M271.7,284.78
			h11.11l-5.56-17.06L271.7,284.78z"/>
	</g>
</g>
<g>
	<path class="st0" d="M388.46,306.3v-55.56h23.01l9.55,34.19l9.62-34.19h21.75v55.56h-15.34v-35.76L426.8,306.3h-12.36l-10.33-36.07
		v36.07H388.46z"/>
</g>
<g>
	<g>
		<path class="st0" d="M574.13,306.3l-2.97-9.23h-19.17l-3.05,9.23h-16.67l20.42-55.56h18.08l20.5,55.56H574.13z M555.98,284.78
			h11.11l-5.56-17.06L555.98,284.78z"/>
	</g>
</g>
<g>
	<g>
		<path class="st0" d="M682.45,306.3v-55.56h22.85c17.53,0,29.58,9.7,29.58,27.15v1.25c0,17.53-12.13,27.15-29.58,27.15H682.45z
			 M698.57,293.15h5.79c8.22,0,13.38-3.52,13.38-14.01v-1.25c0-10.56-5.24-14.01-13.22-14.01h-5.95V293.15z"/>
	</g>
</g>
<g>
	<g>
		<path class="st0" d="M864.85,306.3l-2.97-9.23h-19.17l-3.05,9.23h-16.67l20.42-55.56h18.08l20.5,55.56H864.85z M846.7,284.78
			h11.11l-5.56-17.06L846.7,284.78z"/>
	</g>
</g>
</svg>
